<svg width="52" height="52" viewBox="0 0 52 52" fill="none" xmlns="http://www.w3.org/2000/svg">
<g filter="url(#filter0_dii_5139_38286)">
<path d="M2 11C2 5.47715 6.47715 1 12 1H40C45.5229 1 50 5.47715 50 11V39C50 44.5229 45.5228 49 40 49H12C6.47715 49 2 44.5228 2 39V11Z" fill="#A4B168"/>
<path d="M2.5 11C2.5 5.75329 6.75329 1.5 12 1.5H40C45.2467 1.5 49.5 5.75329 49.5 11V39C49.5 44.2467 45.2467 48.5 40 48.5H12C6.75329 48.5 2.5 44.2467 2.5 39V11Z" stroke="#E9EAEB"/>
<g clip-path="url(#clip0_5139_38286)">
<path d="M23.5556 18.8889L22.9249 20.5927C22.0987 22.8269 21.6856 23.944 20.8703 24.7592C20.0551 25.5744 18.938 25.9876 16.7038 26.8138L15 27.4444L16.7038 28.0751C18.938 28.9013 20.0551 29.3157 20.8703 30.1297C21.6856 30.9437 22.0987 32.062 22.9249 34.2962L23.5556 36L24.1862 34.2962C25.0124 32.062 25.4268 30.9449 26.2408 30.1297C27.0548 29.3144 28.1731 28.9013 30.4073 28.0751L32.1111 27.4444L30.4073 26.8138C28.1731 25.9876 27.056 25.5744 26.2408 24.7592C25.4256 23.944 25.0124 22.8269 24.1862 20.5927L23.5556 18.8889ZM33.3333 14L33.0632 14.7297C32.7088 15.6879 32.5316 16.167 32.1832 16.5153C31.8337 16.8649 31.3546 17.0421 30.3963 17.3953L29.6667 17.6667L30.3976 17.9368C31.3546 18.2912 31.8337 18.4684 32.182 18.8168C32.5316 19.1663 32.7088 19.6454 33.062 20.6037L33.3333 21.3333L33.6034 20.6037C33.9579 19.6454 34.1351 19.1663 34.4834 18.818C34.833 18.4684 35.3121 18.2912 36.2703 17.938L37 17.6667L36.2691 17.3966C35.3121 17.0421 34.833 16.8649 34.4847 16.5166C34.1351 16.167 33.9579 15.6879 33.6047 14.7297L33.3333 14Z" stroke="white" stroke-width="2" stroke-linecap="round" stroke-linejoin="round"/>
</g>
</g>
<defs>
<filter id="filter0_dii_5139_38286" x="0" y="0" width="52" height="52" filterUnits="userSpaceOnUse" color-interpolation-filters="sRGB">
<feFlood flood-opacity="0" result="BackgroundImageFix"/>
<feColorMatrix in="SourceAlpha" type="matrix" values="0 0 0 0 0 0 0 0 0 0 0 0 0 0 0 0 0 0 127 0" result="hardAlpha"/>
<feOffset dy="1"/>
<feGaussianBlur stdDeviation="1"/>
<feComposite in2="hardAlpha" operator="out"/>
<feColorMatrix type="matrix" values="0 0 0 0 0.0392157 0 0 0 0 0.0496732 0 0 0 0 0.0705882 0 0 0 0.05 0"/>
<feBlend mode="normal" in2="BackgroundImageFix" result="effect1_dropShadow_5139_38286"/>
<feBlend mode="normal" in="SourceGraphic" in2="effect1_dropShadow_5139_38286" result="shape"/>
<feColorMatrix in="SourceAlpha" type="matrix" values="0 0 0 0 0 0 0 0 0 0 0 0 0 0 0 0 0 0 127 0" result="hardAlpha"/>
<feOffset dy="-2"/>
<feComposite in2="hardAlpha" operator="arithmetic" k2="-1" k3="1"/>
<feColorMatrix type="matrix" values="0 0 0 0 0.0392157 0 0 0 0 0.0496732 0 0 0 0 0.0705882 0 0 0 0.05 0"/>
<feBlend mode="normal" in2="shape" result="effect2_innerShadow_5139_38286"/>
<feColorMatrix in="SourceAlpha" type="matrix" values="0 0 0 0 0 0 0 0 0 0 0 0 0 0 0 0 0 0 127 0" result="hardAlpha"/>
<feMorphology radius="1" operator="erode" in="SourceAlpha" result="effect3_innerShadow_5139_38286"/>
<feOffset/>
<feComposite in2="hardAlpha" operator="arithmetic" k2="-1" k3="1"/>
<feColorMatrix type="matrix" values="0 0 0 0 0.0392157 0 0 0 0 0.0496732 0 0 0 0 0.0705882 0 0 0 0.18 0"/>
<feBlend mode="normal" in2="effect2_innerShadow_5139_38286" result="effect3_innerShadow_5139_38286"/>
</filter>
<clipPath id="clip0_5139_38286">
<rect width="24" height="24" fill="white" transform="translate(14 13)"/>
</clipPath>
</defs>
</svg>
