<svg width="52" height="52" viewBox="0 0 52 52" fill="none" xmlns="http://www.w3.org/2000/svg">
<g filter="url(#filter0_dii_5139_35226)">
<path d="M2 11C2 5.47715 6.47715 1 12 1H40C45.5229 1 50 5.47715 50 11V39C50 44.5229 45.5228 49 40 49H12C6.47715 49 2 44.5228 2 39V11Z" fill="#A4B168"/>
<path d="M2.5 11C2.5 5.75329 6.75329 1.5 12 1.5H40C45.2467 1.5 49.5 5.75329 49.5 11V39C49.5 44.2467 45.2467 48.5 40 48.5H12C6.75329 48.5 2.5 44.2467 2.5 39V11Z" stroke="#E9EAEB"/>
<path d="M20.2 24.5236C19.8355 24.7666 19.3793 24.8277 18.9638 24.6892C17.2684 24.124 15.938 22.7936 15.3728 21.0982C15.2343 20.6827 15.2954 20.2265 15.5384 19.862L15.6764 19.6549C16.0336 19.1192 16.4231 18.6075 16.8425 18.1225L15.4805 16.7606L17.0606 15.1806L18.4225 16.5425C18.9075 16.1232 19.4192 15.7336 19.9549 15.3764L20.162 15.2384C20.5265 14.9954 20.9827 14.9343 21.3982 15.0728C23.0936 15.638 24.424 16.9684 24.9891 18.6638C25.1277 19.0793 25.0666 19.5355 24.8236 19.9L24.6855 20.1071C24.3284 20.6428 23.9388 21.1545 23.5195 21.6395L29.6204 27.7404C30.2028 27.2282 30.8198 26.7543 31.4679 26.3222L31.592 26.2395C31.7941 26.1048 32.047 26.0709 32.2774 26.1477C34.1576 26.7744 35.6329 28.2497 36.2596 30.1298C36.3364 30.3602 36.3025 30.6132 36.1678 30.8153L36.0851 30.9394C35.653 31.5875 35.1791 32.2045 34.6669 32.7868L36.0541 34.174L34.474 35.7541L33.0868 34.3669C32.5045 34.8791 31.8875 35.353 31.2394 35.7851L31.1153 35.8678C30.9132 36.0025 30.6602 36.0364 30.4298 35.9596C28.5497 35.3329 27.0744 33.8576 26.4477 31.9775C26.3709 31.747 26.4047 31.4941 26.5395 31.292L26.6222 31.1679C27.0543 30.5198 27.5282 29.9028 28.0404 29.3205L21.9395 23.2195C21.4545 23.6389 20.9428 24.0284 20.4071 24.3856L20.2 24.5236Z" stroke="#F5F5F5" stroke-width="2" stroke-linejoin="round"/>
</g>
<defs>
<filter id="filter0_dii_5139_35226" x="0" y="0" width="52" height="52" filterUnits="userSpaceOnUse" color-interpolation-filters="sRGB">
<feFlood flood-opacity="0" result="BackgroundImageFix"/>
<feColorMatrix in="SourceAlpha" type="matrix" values="0 0 0 0 0 0 0 0 0 0 0 0 0 0 0 0 0 0 127 0" result="hardAlpha"/>
<feOffset dy="1"/>
<feGaussianBlur stdDeviation="1"/>
<feComposite in2="hardAlpha" operator="out"/>
<feColorMatrix type="matrix" values="0 0 0 0 0.0392157 0 0 0 0 0.0496732 0 0 0 0 0.0705882 0 0 0 0.05 0"/>
<feBlend mode="normal" in2="BackgroundImageFix" result="effect1_dropShadow_5139_35226"/>
<feBlend mode="normal" in="SourceGraphic" in2="effect1_dropShadow_5139_35226" result="shape"/>
<feColorMatrix in="SourceAlpha" type="matrix" values="0 0 0 0 0 0 0 0 0 0 0 0 0 0 0 0 0 0 127 0" result="hardAlpha"/>
<feOffset dy="-2"/>
<feComposite in2="hardAlpha" operator="arithmetic" k2="-1" k3="1"/>
<feColorMatrix type="matrix" values="0 0 0 0 0.0392157 0 0 0 0 0.0496732 0 0 0 0 0.0705882 0 0 0 0.05 0"/>
<feBlend mode="normal" in2="shape" result="effect2_innerShadow_5139_35226"/>
<feColorMatrix in="SourceAlpha" type="matrix" values="0 0 0 0 0 0 0 0 0 0 0 0 0 0 0 0 0 0 127 0" result="hardAlpha"/>
<feMorphology radius="1" operator="erode" in="SourceAlpha" result="effect3_innerShadow_5139_35226"/>
<feOffset/>
<feComposite in2="hardAlpha" operator="arithmetic" k2="-1" k3="1"/>
<feColorMatrix type="matrix" values="0 0 0 0 0.0392157 0 0 0 0 0.0496732 0 0 0 0 0.0705882 0 0 0 0.18 0"/>
<feBlend mode="normal" in2="effect2_innerShadow_5139_35226" result="effect3_innerShadow_5139_35226"/>
</filter>
</defs>
</svg>
