<svg width="29" height="36" viewBox="0 0 29 36" fill="none" xmlns="http://www.w3.org/2000/svg">
<path d="M23.5018 19.0825C23.4631 14.7829 27.0233 12.6911 27.1861 12.5937C25.1698 9.65476 22.0446 9.25321 20.9464 9.22119C18.3216 8.94504 15.7756 10.7914 14.4385 10.7914C13.0747 10.7914 11.0157 9.24787 8.7966 9.29323C5.94097 9.33725 3.26948 10.9901 1.8043 13.5569C-1.21947 18.7904 1.03568 26.4812 3.93268 30.7115C5.38185 32.7846 7.07522 35.0965 9.29167 35.0151C11.4601 34.9271 12.2701 33.6344 14.8868 33.6344C17.4796 33.6344 18.2402 35.0152 20.5007 34.9631C22.8279 34.9271 24.2931 32.882 25.6916 30.7915C27.3662 28.4182 28.0388 26.0783 28.0655 25.9582C28.0121 25.9396 23.5472 24.2346 23.5018 19.0825ZM19.2317 6.43835C20.398 4.98023 21.1959 2.99649 20.9744 0.983398C19.2864 1.05811 17.1754 2.1507 15.9597 3.5768C14.8842 4.83348 13.9234 6.89326 14.1716 8.83031C16.0678 8.97172 18.0147 7.87379 19.2317 6.43835Z" fill="#171717"/>
</svg>
