<svg width="132" height="45" viewBox="0 0 132 45" fill="none" xmlns="http://www.w3.org/2000/svg">
<rect x="0.5" y="1" width="131" height="43" rx="7.5" fill="#1F222A"/>
<rect x="0.5" y="1" width="131" height="43" rx="7.5" stroke="#A6A6A6"/>
<path d="M89.6785 21.621V24.1411H88.0988V25.7938H89.6785V31.4093C89.6785 33.3268 90.5459 34.0938 92.7282 34.0938C93.1117 34.0938 93.4769 34.0481 93.7965 33.9933V32.3589C93.5226 32.3863 93.3491 32.4046 93.0478 32.4046C92.0708 32.4046 91.6416 31.948 91.6416 30.9071V25.7938H93.7965V24.1411H91.6416V21.621H89.6785Z" fill="white"/>
<path d="M99.3557 34.2307C102.259 34.2307 104.04 32.2859 104.04 29.0627C104.04 25.8577 102.25 23.9037 99.3557 23.9037C96.4521 23.9037 94.6625 25.8577 94.6625 29.0627C94.6625 32.2859 96.443 34.2307 99.3557 34.2307ZM99.3557 32.4867C97.6483 32.4867 96.6895 31.2358 96.6895 29.0627C96.6895 26.9078 97.6483 25.6477 99.3557 25.6477C101.054 25.6477 102.022 26.9078 102.022 29.0627C102.022 31.2267 101.054 32.4867 99.3557 32.4867Z" fill="white"/>
<path d="M105.563 34.039H107.526V28.1678C107.526 26.7708 108.576 25.8303 110.065 25.8303C110.412 25.8303 110.996 25.8943 111.16 25.949V24.0133C110.95 23.9585 110.576 23.9311 110.284 23.9311C108.987 23.9311 107.882 24.6433 107.599 25.6203H107.453V24.0955H105.563V34.039Z" fill="white"/>
<path d="M116.035 25.5747C117.487 25.5747 118.436 26.5882 118.482 28.1496H113.46C113.57 26.5973 114.583 25.5747 116.035 25.5747ZM118.473 31.3545C118.108 32.1306 117.295 32.5598 116.108 32.5598C114.537 32.5598 113.524 31.455 113.46 29.711V29.6014H120.482V28.9166C120.482 25.7938 118.811 23.9037 116.044 23.9037C113.241 23.9037 111.46 25.9217 111.46 29.0992C111.46 32.2767 113.204 34.2307 116.053 34.2307C118.327 34.2307 119.915 33.135 120.363 31.3545H118.473Z" fill="white"/>
<path d="M76.8045 30.367C76.956 32.8087 78.9907 34.3702 82.0191 34.3702C85.2558 34.3702 87.281 32.733 87.281 30.1209C87.281 28.0673 86.1264 26.9316 83.3251 26.2786L81.8204 25.9095C80.0412 25.4931 79.3219 24.9347 79.3219 23.96C79.3219 22.7297 80.4387 21.9252 82.1138 21.9252C83.7037 21.9252 84.8015 22.7107 85.0002 23.9694H87.0634C86.9403 21.6697 84.9151 20.0514 82.1422 20.0514C79.161 20.0514 77.1736 21.6697 77.1736 24.1019C77.1736 26.1083 78.2998 27.3007 80.7699 27.878L82.5302 28.3039C84.3378 28.7298 85.1327 29.3544 85.1327 30.3954C85.1327 31.6068 83.8835 32.4869 82.18 32.4869C80.3535 32.4869 79.0853 31.6636 78.9055 30.367H76.8045Z" fill="white"/>
<path d="M56.4685 23.9311C55.1171 23.9311 53.9483 24.6068 53.3457 25.739H53.1996V24.0955H51.3095V37.3444H53.2727V32.5324H53.4279C53.9483 33.5824 55.0714 34.2033 56.4867 34.2033C58.9977 34.2033 60.5956 32.2219 60.5956 29.0627C60.5956 25.9034 58.9977 23.9311 56.4685 23.9311ZM55.9115 32.4411C54.2679 32.4411 53.2361 31.1445 53.2361 29.0718C53.2361 26.99 54.2679 25.6934 55.9206 25.6934C57.5824 25.6934 58.5777 26.9626 58.5777 29.0627C58.5777 31.1719 57.5824 32.4411 55.9115 32.4411Z" fill="white"/>
<path d="M67.4649 23.9311C66.1136 23.9311 64.9448 24.6068 64.3422 25.739H64.1961V24.0955H62.306V37.3444H64.2691V32.5324H64.4244C64.9448 33.5824 66.0679 34.2033 67.4832 34.2033C69.9942 34.2033 71.5921 32.2219 71.5921 29.0627C71.5921 25.9034 69.9942 23.9311 67.4649 23.9311ZM66.908 32.4411C65.2644 32.4411 64.2326 31.1445 64.2326 29.0718C64.2326 26.99 65.2644 25.6934 66.9171 25.6934C68.5789 25.6934 69.5742 26.9626 69.5742 29.0627C69.5742 31.1719 68.5789 32.4411 66.908 32.4411Z" fill="white"/>
<path d="M47.7873 34.039H50.0397L45.1091 20.3826H42.8283L37.8976 34.039H40.0743L41.333 30.4143H46.5381L47.7873 34.039ZM43.8598 22.8622H44.0207L45.9987 28.6351H41.8724L43.8598 22.8622Z" fill="white"/>
<path d="M39.2163 10.082V16.6699H41.5949C43.558 16.6699 44.6948 15.4601 44.6948 13.3554C44.6948 11.2827 43.5489 10.082 41.5949 10.082H39.2163ZM40.239 11.0134H41.4808C42.8458 11.0134 43.6539 11.8808 43.6539 13.3691C43.6539 14.8803 42.8595 15.7386 41.4808 15.7386H40.239V11.0134Z" fill="white"/>
<path d="M48.1764 16.7658C49.6282 16.7658 50.5185 15.7934 50.5185 14.1818C50.5185 12.5793 49.6237 11.6023 48.1764 11.6023C46.7246 11.6023 45.8298 12.5793 45.8298 14.1818C45.8298 15.7934 46.72 16.7658 48.1764 16.7658ZM48.1764 15.8938C47.3227 15.8938 46.8433 15.2683 46.8433 14.1818C46.8433 13.1043 47.3227 12.4743 48.1764 12.4743C49.0256 12.4743 49.5095 13.1043 49.5095 14.1818C49.5095 15.2638 49.0256 15.8938 48.1764 15.8938Z" fill="white"/>
<path d="M58.0998 11.6982H57.1183L56.2326 15.4921H56.155L55.1323 11.6982H54.1918L53.1692 15.4921H53.0961L52.2059 11.6982H51.2106L52.5802 16.6699H53.5892L54.6119 13.0085H54.6895L55.7167 16.6699H56.7348L58.0998 11.6982Z" fill="white"/>
<path d="M59.2302 16.6699H60.2118V13.7618C60.2118 12.9856 60.6729 12.5017 61.3988 12.5017C62.1247 12.5017 62.4717 12.8989 62.4717 13.6978V16.6699H63.4533V13.4513C63.4533 12.2689 62.8415 11.6023 61.7321 11.6023C60.9834 11.6023 60.4903 11.9356 60.2483 12.488H60.1753V11.6982H59.2302V16.6699Z" fill="white"/>
<path d="M64.9991 16.6699H65.9807V9.75787H64.9991V16.6699Z" fill="white"/>
<path d="M69.6723 16.7658C71.1241 16.7658 72.0144 15.7934 72.0144 14.1818C72.0144 12.5793 71.1195 11.6023 69.6723 11.6023C68.2205 11.6023 67.3257 12.5793 67.3257 14.1818C67.3257 15.7934 68.2159 16.7658 69.6723 16.7658ZM69.6723 15.8938C68.8186 15.8938 68.3392 15.2683 68.3392 14.1818C68.3392 13.1043 68.8186 12.4743 69.6723 12.4743C70.5215 12.4743 71.0054 13.1043 71.0054 14.1818C71.0054 15.2638 70.5215 15.8938 69.6723 15.8938Z" fill="white"/>
<path d="M74.939 15.9258C74.4048 15.9258 74.0168 15.6655 74.0168 15.2181C74.0168 14.7798 74.3272 14.547 75.012 14.5014L76.2264 14.4237V14.8392C76.2264 15.4555 75.6786 15.9258 74.939 15.9258ZM74.6879 16.7521C75.3407 16.7521 75.884 16.4691 76.1808 15.9714H76.2584V16.6699H77.2034V13.2733C77.2034 12.2232 76.5003 11.6023 75.254 11.6023C74.1263 11.6023 73.3228 12.1502 73.2224 13.0039H74.172C74.2816 12.6524 74.6605 12.4515 75.2083 12.4515C75.8794 12.4515 76.2264 12.7482 76.2264 13.2733V13.7024L74.8796 13.78C73.6972 13.8531 73.0306 14.369 73.0306 15.2638C73.0306 16.1723 73.7291 16.7521 74.6879 16.7521Z" fill="white"/>
<path d="M80.5344 16.7521C81.2192 16.7521 81.799 16.428 82.0957 15.8847H82.1734V16.6699H83.1138V9.75787H82.1323V12.488H82.0592C81.7899 11.9401 81.2146 11.616 80.5344 11.616C79.2789 11.616 78.4708 12.6113 78.4708 14.1818C78.4708 15.7568 79.2697 16.7521 80.5344 16.7521ZM80.8129 12.4971C81.6346 12.4971 82.1505 13.15 82.1505 14.1863C82.1505 15.2273 81.6392 15.871 80.8129 15.871C79.9819 15.871 79.4843 15.2364 79.4843 14.1818C79.4843 13.1363 79.9865 12.4971 80.8129 12.4971Z" fill="white"/>
<path d="M89.479 16.7658C90.9308 16.7658 91.821 15.7934 91.821 14.1818C91.821 12.5793 90.9262 11.6023 89.479 11.6023C88.0271 11.6023 87.1323 12.5793 87.1323 14.1818C87.1323 15.7934 88.0226 16.7658 89.479 16.7658ZM89.479 15.8938C88.6252 15.8938 88.1459 15.2683 88.1459 14.1818C88.1459 13.1043 88.6252 12.4743 89.479 12.4743C90.3281 12.4743 90.8121 13.1043 90.8121 14.1818C90.8121 15.2638 90.3281 15.8938 89.479 15.8938Z" fill="white"/>
<path d="M93.1203 16.6699H94.1019V13.7618C94.1019 12.9856 94.563 12.5017 95.2889 12.5017C96.0148 12.5017 96.3618 12.8989 96.3618 13.6978V16.6699H97.3434V13.4513C97.3434 12.2689 96.7316 11.6023 95.6222 11.6023C94.8735 11.6023 94.3804 11.9356 94.1384 12.488H94.0654V11.6982H93.1203V16.6699Z" fill="white"/>
<path d="M101.864 10.4609V11.721H101.074V12.5474H101.864V15.3551C101.864 16.3138 102.298 16.6973 103.389 16.6973C103.581 16.6973 103.763 16.6745 103.923 16.6471V15.8299C103.786 15.8436 103.699 15.8527 103.549 15.8527C103.06 15.8527 102.846 15.6245 102.846 15.104V12.5474H103.923V11.721H102.846V10.4609H101.864Z" fill="white"/>
<path d="M105.241 16.6699H106.222V13.7663C106.222 13.013 106.67 12.5063 107.473 12.5063C108.167 12.5063 108.537 12.908 108.537 13.7024V16.6699H109.518V13.4604C109.518 12.278 108.866 11.6069 107.806 11.6069C107.058 11.6069 106.533 11.9401 106.291 12.4971H106.213V9.75787H105.241V16.6699Z" fill="white"/>
<path d="M113.059 12.4378C113.785 12.4378 114.26 12.9445 114.283 13.7252H111.772C111.827 12.9491 112.333 12.4378 113.059 12.4378ZM114.278 15.3277C114.096 15.7158 113.689 15.9303 113.096 15.9303C112.311 15.9303 111.804 15.3779 111.772 14.5059V14.4511H115.283V14.1087C115.283 12.5474 114.447 11.6023 113.064 11.6023C111.662 11.6023 110.772 12.6113 110.772 14.2C110.772 15.7888 111.644 16.7658 113.069 16.7658C114.205 16.7658 115 16.218 115.223 15.3277H114.278Z" fill="white"/>
<path d="M27.2459 22.8309C27.2697 20.9818 28.2628 19.2322 29.8381 18.2637C28.8443 16.8443 27.1797 15.9444 25.4479 15.8902C23.6007 15.6963 21.8099 16.9955 20.8687 16.9955C19.9092 16.9955 18.4599 15.9095 16.8993 15.9416C14.8651 16.0073 12.9688 17.1638 11.9791 18.9422C9.8517 22.6255 11.4386 28.0386 13.4764 31.0159C14.496 32.4738 15.6876 34.1023 17.2468 34.0445C18.7726 33.9813 19.3424 33.0716 21.1842 33.0716C23.0088 33.0716 23.5434 34.0445 25.1343 34.0078C26.7715 33.9813 27.803 32.5435 28.7868 31.0718C29.5194 30.033 30.0831 28.8849 30.4571 27.67C28.533 26.8562 27.2482 24.92 27.2459 22.8309Z" fill="white"/>
<path d="M24.2411 13.9322C25.1338 12.8606 25.5736 11.4832 25.4671 10.0925C24.1032 10.2358 22.8435 10.8876 21.9387 11.9181C21.054 12.925 20.5936 14.2781 20.6806 15.6156C22.0449 15.6297 23.3862 14.9955 24.2411 13.9322Z" fill="white"/>
</svg>
