<svg width="49" height="49" viewBox="0 0 49 49" fill="none" xmlns="http://www.w3.org/2000/svg">
<rect x="0.965332" y="0.09375" width="48" height="48" rx="24" fill="white"/>
<path d="M29.9653 15.5938C29.9653 15.4612 29.9127 15.334 29.8189 15.2403C29.7251 15.1465 29.5979 15.0938 29.4653 15.0938H26.9653C25.7065 15.0311 24.4739 15.4692 23.5371 16.3124C22.6002 17.1556 22.0351 18.3353 21.9653 19.5938V22.2938H19.4653C19.3327 22.2938 19.2055 22.3465 19.1118 22.4403C19.018 22.534 18.9653 22.6612 18.9653 22.7938V25.3938C18.9653 25.5264 19.018 25.6536 19.1118 25.7474C19.2055 25.8411 19.3327 25.8938 19.4653 25.8938H21.9653V32.5938C21.9653 32.7264 22.018 32.8536 22.1118 32.9474C22.2055 33.0411 22.3327 33.0938 22.4653 33.0938H25.4653C25.5979 33.0938 25.7251 33.0411 25.8189 32.9474C25.9127 32.8536 25.9653 32.7264 25.9653 32.5938V25.8938H28.5853C28.6965 25.8954 28.8051 25.8599 28.8938 25.7929C28.9826 25.7259 29.0464 25.6312 29.0753 25.5238L29.7953 22.9238C29.8152 22.8499 29.8179 22.7725 29.8031 22.6974C29.7884 22.6223 29.7566 22.5516 29.7102 22.4908C29.6639 22.4299 29.6042 22.3805 29.5357 22.3464C29.4672 22.3122 29.3918 22.2942 29.3153 22.2938H25.9653V19.5938C25.9902 19.3463 26.1064 19.1169 26.2914 18.9505C26.4763 18.7841 26.7166 18.6926 26.9653 18.6938H29.4653C29.5979 18.6938 29.7251 18.6411 29.8189 18.5474C29.9127 18.4536 29.9653 18.3264 29.9653 18.1938V15.5938Z" fill="#1F222A"/>
</svg>
