<svg width="88" height="36" viewBox="0 0 88 36" fill="none" xmlns="http://www.w3.org/2000/svg">
<path d="M48.3816 5.50991C48.1419 5.76388 47.8556 5.96887 47.5386 6.11394C47.8074 6.23699 48.0549 6.40345 48.2708 6.60717C48.5249 6.84697 48.73 7.13337 48.8752 7.45041C48.9982 7.1816 49.1647 6.93416 49.3684 6.71825C49.6082 6.46417 49.8945 6.25908 50.2115 6.11394C49.9426 5.99081 49.6951 5.82426 49.4791 5.6204C49.2252 5.38068 49.0202 5.09441 48.8752 4.77755C48.752 5.04645 48.5855 5.29396 48.3816 5.50991Z" fill="#F0F0F2" stroke="#D0EA59" stroke-width="2.38095"/>
<path d="M71.7878 1.42676H61.7743C61.2052 1.42676 60.6594 1.63747 60.257 2.01254C59.8546 2.38762 59.6285 2.89632 59.6285 3.42676V32.7601C59.6285 33.0227 59.684 33.2828 59.7919 33.5255C59.8997 33.7681 60.0578 33.9886 60.257 34.1743C60.4563 34.36 60.6928 34.5073 60.9531 34.6079C61.2135 34.7084 61.4925 34.7601 61.7743 34.7601H71.7878C72.0695 34.7601 72.3486 34.7084 72.6089 34.6079C72.8692 34.5073 73.1058 34.36 73.305 34.1743C73.5043 33.9886 73.6623 33.7681 73.7702 33.5255C73.878 33.2828 73.9335 33.0227 73.9335 32.7601V3.42676C73.9335 2.89632 73.7074 2.38762 73.305 2.01254C72.9026 1.63747 72.3568 1.42676 71.7878 1.42676Z" fill="#D0EA59" stroke="#F0F0F2" stroke-width="2.38095" stroke-linecap="round" stroke-linejoin="round"/>
<path d="M26.0802 1.42676H16.0668C15.4977 1.42676 14.9519 1.63747 14.5495 2.01254C14.1471 2.38762 13.921 2.89632 13.921 3.42676V32.7601C13.921 33.0227 13.9765 33.2828 14.0844 33.5255C14.1922 33.7681 14.3502 33.9886 14.5495 34.1743C14.7487 34.36 14.9853 34.5073 15.2456 34.6079C15.506 34.7084 15.785 34.7601 16.0668 34.7601H26.0802C26.362 34.7601 26.641 34.7084 26.9014 34.6079C27.1617 34.5073 27.3983 34.36 27.5975 34.1743C27.7968 33.9886 27.9548 33.7681 28.0626 33.5255C28.1705 33.2828 28.226 33.0227 28.226 32.7601V3.42676C28.226 2.89632 27.9999 2.38762 27.5975 2.01254C27.1951 1.63747 26.6493 1.42676 26.0802 1.42676Z" fill="#D0EA59" stroke="#F0F0F2" stroke-width="2.38095" stroke-linecap="round" stroke-linejoin="round"/>
<path d="M2 27.617V8.56943C2 7.93796 2.25119 7.33235 2.6983 6.88584C3.14542 6.43932 3.75184 6.18848 4.38416 6.18848H11.5366C12.169 6.18848 12.7754 6.43932 13.2225 6.88584C13.6696 7.33235 13.9208 7.93796 13.9208 8.56943V27.617C13.9208 28.2485 13.6696 28.8541 13.2225 29.3006C12.7754 29.7472 12.169 29.998 11.5366 29.998H4.38416C3.75184 29.998 3.14542 29.7472 2.6983 29.3006C2.25119 28.8541 2 28.2485 2 27.617Z" fill="#D0EA59" stroke="#F0F0F2" stroke-width="2.38095" stroke-linecap="round" stroke-linejoin="round"/>
<path d="M85.8543 27.617V8.56943C85.8543 7.93796 85.6031 7.33235 85.156 6.88584C84.7088 6.43932 84.1024 6.18848 83.4701 6.18848H76.3176C75.6853 6.18848 75.0789 6.43932 74.6318 6.88584C74.1847 7.33235 73.9335 7.93796 73.9335 8.56943V27.617C73.9335 28.2485 74.1847 28.8541 74.6318 29.3006C75.0789 29.7472 75.6853 29.998 76.3176 29.998H83.4701C84.1024 29.998 84.7088 29.7472 85.156 29.3006C85.6031 28.8541 85.8543 28.2485 85.8543 27.617Z" fill="#D0EA59" stroke="#F0F0F2" stroke-width="2.38095" stroke-linecap="round" stroke-linejoin="round"/>
<path d="M23.2645 18.0938H64.59" stroke="#D0EA59" stroke-width="2.38095" stroke-linecap="round" stroke-linejoin="round"/>
<path d="M41.8399 9.48107C42.417 7.48531 44.7503 7.42486 45.4345 9.29975L45.4924 9.48222L46.2711 12.1737C46.4496 12.7909 46.738 13.3557 47.1169 13.8301C47.4958 14.3044 47.9563 14.6772 48.4675 14.9233L48.6769 15.0156L50.9543 15.9348C52.643 16.6168 52.6941 19.3744 51.1087 20.183L50.9543 20.2514L48.6769 21.1717C48.1544 21.3825 47.6763 21.7233 47.2748 22.171C46.8732 22.6188 46.5576 23.1632 46.3493 23.7674L46.2711 24.0137L45.4934 26.7063C44.9163 28.702 42.5829 28.7625 41.8997 26.8887L41.8399 26.7063L41.0621 24.0148C40.8838 23.3974 40.5954 22.8323 40.2165 22.3578C39.8376 21.8833 39.377 21.5103 38.8658 21.2641L38.6573 21.1717L36.38 20.2525C34.6903 19.5705 34.6391 16.813 36.2256 16.0055L36.38 15.9348L38.6573 15.0156C39.1796 14.8047 39.6576 14.4639 40.0589 14.0161C40.4603 13.5683 40.7757 13.0241 40.9839 12.42L41.0621 12.1737L41.8399 9.48107Z" fill="#D0EA59" stroke="#F0F0F2" stroke-width="1.5625"/>
</svg>
