<svg width="49" height="49" viewBox="0 0 49 49" fill="none" xmlns="http://www.w3.org/2000/svg">
<rect x="0.965332" y="0.09375" width="48" height="48" rx="24" fill="white"/>
<path d="M28.1153 20.4942C27.3489 20.4915 26.5895 20.6401 25.8805 20.9313C25.1715 21.2224 24.5269 21.6506 23.9835 22.1911C23.4402 22.7317 23.0087 23.3741 22.7139 24.0816C22.4191 24.7891 22.2667 25.5477 22.2654 26.3142V32.1942C22.2654 32.4329 22.3602 32.6618 22.529 32.8306C22.6977 32.9994 22.9267 33.0942 23.1653 33.0942H25.2654C25.504 33.0942 25.733 32.9994 25.9017 32.8306C26.0705 32.6618 26.1653 32.4329 26.1653 32.1942V26.3142C26.1652 26.0416 26.2224 25.772 26.3334 25.523C26.4444 25.274 26.6066 25.0512 26.8094 24.8691C27.0123 24.687 27.2512 24.5497 27.5107 24.4662C27.7702 24.3826 28.0444 24.3547 28.3154 24.3842C28.8014 24.4454 29.248 24.6828 29.5706 25.0515C29.8931 25.4201 30.0692 25.8943 30.0654 26.3842V32.1942C30.0654 32.4329 30.1602 32.6618 30.329 32.8306C30.4977 32.9994 30.7267 33.0942 30.9654 33.0942H33.0654C33.304 33.0942 33.533 32.9994 33.7017 32.8306C33.8705 32.6618 33.9654 32.4329 33.9654 32.1942V26.3142C33.964 25.5477 33.8116 24.7891 33.5168 24.0816C33.222 23.3741 32.7905 22.7317 32.2472 22.1911C31.7038 21.6506 31.0592 21.2224 30.3502 20.9313C29.6412 20.6401 28.8818 20.4915 28.1153 20.4942Z" fill="#1F222A"/>
<path d="M19.5653 21.3936H16.8653C16.3683 21.3936 15.9653 21.7965 15.9653 22.2936V32.1936C15.9653 32.6906 16.3683 33.0936 16.8653 33.0936H19.5653C20.0624 33.0936 20.4653 32.6906 20.4653 32.1936V22.2936C20.4653 21.7965 20.0624 21.3936 19.5653 21.3936Z" fill="#1F222A"/>
<path d="M18.2153 19.5938C19.458 19.5938 20.4653 18.5864 20.4653 17.3438C20.4653 16.1011 19.458 15.0938 18.2153 15.0938C16.9727 15.0938 15.9653 16.1011 15.9653 17.3438C15.9653 18.5864 16.9727 19.5938 18.2153 19.5938Z" fill="#1F222A"/>
</svg>
