
<svg width="88" height="36" viewBox="0 0 88 36" fill="none" xmlns="http://www.w3.org/2000/svg">
<path d="M48.3816 5.41681C48.1419 5.67078 47.8556 5.87576 47.5386 6.02083C47.8074 6.14389 48.0549 6.31034 48.2708 6.51407C48.5249 6.75386 48.73 7.04027 48.8752 7.3573C48.9982 7.08849 49.1647 6.84105 49.3684 6.62514C49.6082 6.37106 49.8945 6.16598 50.2115 6.02083C49.9426 5.89771 49.6951 5.73115 49.4791 5.5273C49.2252 5.28758 49.0202 5.00131 48.8752 4.68444C48.752 4.95334 48.5855 5.20086 48.3816 5.41681Z" fill="white" stroke="#D0EA59" stroke-width="2.38095"/>
<path d="M71.7878 1.33332H61.7743C61.2052 1.33332 60.6594 1.54404 60.257 1.91911C59.8546 2.29418 59.6285 2.80289 59.6285 3.33332V32.6667C59.6285 32.9293 59.684 33.1894 59.7919 33.432C59.8997 33.6747 60.0578 33.8952 60.257 34.0809C60.4563 34.2666 60.6928 34.4139 60.9531 34.5144C61.2135 34.6149 61.4925 34.6667 61.7743 34.6667H71.7878C72.0695 34.6667 72.3486 34.6149 72.6089 34.5144C72.8692 34.4139 73.1058 34.2666 73.305 34.0809C73.5043 33.8952 73.6623 33.6747 73.7702 33.432C73.878 33.1894 73.9335 32.9293 73.9335 32.6667V3.33332C73.9335 2.80289 73.7074 2.29418 73.305 1.91911C72.9026 1.54404 72.3568 1.33332 71.7878 1.33332Z" fill="#D0EA59" stroke="white" stroke-width="2.38095" stroke-linecap="round" stroke-linejoin="round"/>
<path d="M26.0802 1.33332H16.0668C15.4977 1.33332 14.9519 1.54404 14.5495 1.91911C14.1471 2.29418 13.921 2.80289 13.921 3.33332V32.6667C13.921 32.9293 13.9765 33.1894 14.0844 33.432C14.1922 33.6747 14.3502 33.8952 14.5495 34.0809C14.7487 34.2666 14.9853 34.4139 15.2456 34.5144C15.506 34.6149 15.785 34.6667 16.0668 34.6667H26.0802C26.362 34.6667 26.641 34.6149 26.9014 34.5144C27.1617 34.4139 27.3983 34.2666 27.5975 34.0809C27.7968 33.8952 27.9548 33.6747 28.0626 33.432C28.1705 33.1894 28.226 32.9293 28.226 32.6667V3.33332C28.226 2.80289 27.9999 2.29418 27.5975 1.91911C27.1951 1.54404 26.6493 1.33332 26.0802 1.33332Z" fill="#D0EA59" stroke="white" stroke-width="2.38095" stroke-linecap="round" stroke-linejoin="round"/>
<path d="M2 27.5238V8.47618C2 7.84471 2.25119 7.2391 2.6983 6.79259C3.14542 6.34607 3.75184 6.09522 4.38416 6.09522H11.5366C12.169 6.09522 12.7754 6.34607 13.2225 6.79259C13.6696 7.2391 13.9208 7.84471 13.9208 8.47618V27.5238C13.9208 28.1553 13.6696 28.7609 13.2225 29.2074C12.7754 29.6539 12.169 29.9047 11.5366 29.9047H4.38416C3.75184 29.9047 3.14542 29.6539 2.6983 29.2074C2.25119 28.7609 2 28.1553 2 27.5238Z" fill="#D0EA59" stroke="white" stroke-width="2.38095" stroke-linecap="round" stroke-linejoin="round"/>
<path d="M85.8543 27.5238V8.47618C85.8543 7.84471 85.6031 7.2391 85.156 6.79259C84.7088 6.34607 84.1024 6.09522 83.4701 6.09522H76.3176C75.6853 6.09522 75.0789 6.34607 74.6318 6.79259C74.1847 7.2391 73.9335 7.84471 73.9335 8.47618V27.5238C73.9335 28.1553 74.1847 28.7609 74.6318 29.2074C75.0789 29.6539 75.6853 29.9047 76.3176 29.9047H83.4701C84.1024 29.9047 84.7088 29.6539 85.156 29.2074C85.6031 28.7609 85.8543 28.1553 85.8543 27.5238Z" fill="#D0EA59" stroke="white" stroke-width="2.38095" stroke-linecap="round" stroke-linejoin="round"/>
<path d="M23.2645 18H64.59" stroke="#D0EA59" stroke-width="2.38095" stroke-linecap="round" stroke-linejoin="round"/>
<path d="M41.8399 9.38732C42.417 7.39155 44.7503 7.33111 45.4345 9.20599L45.4924 9.38846L46.2711 12.0799C46.4496 12.6971 46.738 13.262 47.1169 13.7363C47.4958 14.2106 47.9563 14.5834 48.4675 14.8295L48.6769 14.9219L50.9543 15.8411C52.643 16.523 52.6941 19.2806 51.1087 20.0892L50.9543 20.1576L48.6769 21.078C48.1544 21.2887 47.6763 21.6295 47.2748 22.0773C46.8732 22.5251 46.5576 23.0694 46.3493 23.6736L46.2711 23.9199L45.4934 26.6125C44.9163 28.6083 42.5829 28.6687 41.8997 26.795L41.8399 26.6125L41.0621 23.9211C40.8838 23.3036 40.5954 22.7386 40.2165 22.264C39.8376 21.7895 39.377 21.4166 38.8658 21.1703L38.6573 21.078L36.38 20.1588C34.6903 19.4768 34.6391 16.7192 36.2256 15.9118L36.38 15.8411L38.6573 14.9219C39.1796 14.711 39.6576 14.3701 40.0589 13.9224C40.4603 13.4746 40.7757 12.9303 40.9839 12.3262L41.0621 12.0799L41.8399 9.38732Z" fill="#D0EA59" stroke="white" stroke-width="1.5625"/>
</svg>
