<svg width="49" height="49" viewBox="0 0 49 49" fill="none" xmlns="http://www.w3.org/2000/svg">
<rect x="0.965332" y="0.09375" width="48" height="48" rx="24" fill="white"/>
<path d="M21.0453 32.0935C22.524 32.143 23.9976 31.8956 25.3791 31.3658C26.7605 30.8361 28.0218 30.0348 29.0882 29.0094C30.1547 27.9839 31.0048 26.755 31.5883 25.3954C32.1718 24.0358 32.4768 22.573 32.4853 21.0936C33.163 20.255 33.6662 19.2894 33.9653 18.2535C33.9877 18.1717 33.9859 18.0852 33.9602 18.0043C33.9344 17.9235 33.8859 17.8518 33.8204 17.7979C33.7549 17.744 33.6752 17.7102 33.5909 17.7006C33.5066 17.6909 33.4213 17.7059 33.3453 17.7436C32.9908 17.9142 32.5917 17.9693 32.2042 17.9012C31.8167 17.833 31.4603 17.645 31.1853 17.3635C30.8343 16.9791 30.4097 16.6691 29.9366 16.4518C29.4635 16.2345 28.9516 16.1143 28.4313 16.0985C27.9109 16.0826 27.3927 16.1714 26.9073 16.3595C26.4219 16.5476 25.9791 16.8312 25.6053 17.1935C25.0935 17.6892 24.7187 18.3088 24.5172 18.9922C24.3156 19.6756 24.2943 20.3995 24.4553 21.0936C21.1053 21.2936 18.8053 19.7035 16.9653 17.5235C16.9101 17.461 16.8378 17.4158 16.7572 17.3936C16.6767 17.3714 16.5915 17.3732 16.512 17.3986C16.4324 17.4241 16.362 17.4721 16.3093 17.5369C16.2567 17.6017 16.224 17.6805 16.2153 17.7636C15.8648 19.708 16.1177 21.7131 16.94 23.5096C17.7622 25.3061 19.1146 26.808 20.8153 27.8135C19.675 29.1214 18.0736 29.9382 16.3453 30.0935C16.2528 30.1089 16.1673 30.1528 16.1009 30.2192C16.0345 30.2855 15.9905 30.3709 15.9751 30.4635C15.9597 30.5561 15.9736 30.6512 16.0148 30.7354C16.0561 30.8197 16.1227 30.889 16.2053 30.9335C17.7089 31.6849 19.3646 32.0817 21.0453 32.0935Z" fill="#1F222A"/>
</svg>
