
<svg width="24" height="25" viewBox="0 0 24 25" fill="none" xmlns="http://www.w3.org/2000/svg">
<rect y="0.5" width="24" height="24" rx="12" fill="#F6F7F9"/>
<path d="M5.20697 10.9849C5.3945 10.7975 5.64881 10.6922 5.91397 10.6922C6.17914 10.6922 6.43344 10.7975 6.62097 10.9849L10.157 14.5209L17.227 7.44994C17.3198 7.35703 17.4301 7.28332 17.5514 7.23301C17.6727 7.1827 17.8028 7.15678 17.9341 7.15674C18.0655 7.15669 18.1955 7.18252 18.3169 7.23274C18.4383 7.28296 18.5486 7.3566 18.6415 7.44944C18.7344 7.54229 18.8081 7.65252 18.8584 7.77385C18.9087 7.89519 18.9346 8.02524 18.9347 8.15659C18.9347 8.28794 18.9089 8.41801 18.8587 8.53938C18.8085 8.66074 18.7348 8.77103 18.642 8.86394L10.157 17.3489L5.20697 12.3989C5.0195 12.2114 4.91418 11.9571 4.91418 11.6919C4.91418 11.4268 5.0195 11.1725 5.20697 10.9849Z" fill="#171717"/>
</svg>
